<?xml version="1.0" encoding="UTF-8"?>
<svg xmlns="http://www.w3.org/2000/svg"
     viewBox="0 0 900 620"
     width="900" height="620"
     fill="none"
     stroke-linecap="round"
     stroke-linejoin="round">

  <!-- Arka plan -->
  <rect width="900" height="620" fill="#1a1510"/>

  <!-- ════════════════════════════════════════════════
       BİNA ÇİZİMİ
  ════════════════════════════════════════════════ -->
  <g stroke="#e8ddc8">

    <!-- TEMEL / PLATFORM -->
    <line x1="40"  y1="420" x2="860" y2="420" stroke-width="1.2"/>
    <line x1="40"  y1="430" x2="860" y2="430" stroke-width="0.6"/>
    <line x1="60"  y1="440" x2="840" y2="440" stroke-width="0.5"/>
    <line x1="80"  y1="450" x2="820" y2="450" stroke-width="0.5"/>

    <!-- ZEMİN KAT DUVARLAR -->
    <line x1="80"  y1="420" x2="80"  y2="220" stroke-width="1.2"/>
    <line x1="820" y1="420" x2="820" y2="220" stroke-width="1.2"/>
    <line x1="80"  y1="390" x2="820" y2="390" stroke-width="0.35" stroke-opacity="0.5"/>
    <line x1="80"  y1="360" x2="820" y2="360" stroke-width="0.35" stroke-opacity="0.5"/>
    <line x1="80"  y1="330" x2="820" y2="330" stroke-width="0.35" stroke-opacity="0.5"/>
    <line x1="80"  y1="300" x2="820" y2="300" stroke-width="0.35" stroke-opacity="0.5"/>

    <!-- MERKEZ KEMERLİ KAPI -->
    <rect x="370" y="280" width="160" height="140" stroke-width="0.8"/>
    <rect x="378" y="288" width="144" height="132" stroke-width="0.4" stroke-opacity="0.6"/>
    <path d="M370 320 Q370 265 450 265 Q530 265 530 320" stroke-width="1.2"/>
    <path d="M378 320 Q378 273 450 273 Q522 273 522 320" stroke-width="0.5" stroke-opacity="0.7"/>
    <polygon points="445,264 450,254 455,264" stroke-width="0.8" fill="none"/>
    <line x1="450" y1="254" x2="450" y2="248" stroke-width="0.8"/>
    <circle cx="518" cy="355" r="4" stroke-width="0.8"/>
    <rect x="385" y="330" width="56" height="70" rx="1" stroke-width="0.5" stroke-opacity="0.6"/>
    <rect x="459" y="330" width="56" height="70" rx="1" stroke-width="0.5" stroke-opacity="0.6"/>
    <line x1="413" y1="330" x2="413" y2="400" stroke-width="0.3" stroke-opacity="0.4"/>
    <line x1="487" y1="330" x2="487" y2="400" stroke-width="0.3" stroke-opacity="0.4"/>
    <circle cx="450" cy="290" r="12" stroke-width="0.6" stroke-opacity="0.6"/>
    <circle cx="450" cy="290" r="7"  stroke-width="0.4" stroke-opacity="0.5"/>
    <line x1="450" y1="278" x2="450" y2="275" stroke-width="0.4" stroke-opacity="0.5"/>
    <line x1="462" y1="290" x2="465" y2="290" stroke-width="0.4" stroke-opacity="0.5"/>
    <line x1="438" y1="290" x2="435" y2="290" stroke-width="0.4" stroke-opacity="0.5"/>
    <line x1="450" y1="302" x2="450" y2="305" stroke-width="0.4" stroke-opacity="0.5"/>
    <rect x="358" y="280" width="14" height="140" stroke-width="0.7"/>
    <rect x="528" y="280" width="14" height="140" stroke-width="0.7"/>
    <line x1="365" y1="285" x2="365" y2="418" stroke-width="0.3" stroke-opacity="0.5"/>
    <line x1="535" y1="285" x2="535" y2="418" stroke-width="0.3" stroke-opacity="0.5"/>

    <!-- SOL PENCERELER -->
    <rect x="110" y="300" width="100" height="120" stroke-width="0.9"/>
    <path d="M110 340 Q110 290 160 290 Q210 290 210 340" stroke-width="1.0"/>
    <path d="M118 340 Q118 298 160 298 Q202 298 202 340" stroke-width="0.45" stroke-opacity="0.6"/>
    <polygon points="157,289 160,282 163,289" stroke-width="0.7" fill="none"/>
    <line x1="160" y1="340" x2="160" y2="418" stroke-width="0.4" stroke-opacity="0.5"/>
    <rect x="104" y="294" width="6" height="126" stroke-width="0.5"/>
    <rect x="210" y="294" width="6" height="126" stroke-width="0.5"/>

    <rect x="230" y="300" width="100" height="120" stroke-width="0.9"/>
    <path d="M230 340 Q230 290 280 290 Q330 290 330 340" stroke-width="1.0"/>
    <path d="M238 340 Q238 298 280 298 Q322 298 322 340" stroke-width="0.45" stroke-opacity="0.6"/>
    <polygon points="277,289 280,282 283,289" stroke-width="0.7" fill="none"/>
    <line x1="280" y1="340" x2="280" y2="418" stroke-width="0.4" stroke-opacity="0.5"/>
    <rect x="224" y="294" width="6" height="126" stroke-width="0.5"/>
    <rect x="330" y="294" width="6" height="126" stroke-width="0.5"/>

    <!-- SAĞ PENCERELER -->
    <rect x="570" y="300" width="100" height="120" stroke-width="0.9"/>
    <path d="M570 340 Q570 290 620 290 Q670 290 670 340" stroke-width="1.0"/>
    <path d="M578 340 Q578 298 620 298 Q662 298 662 340" stroke-width="0.45" stroke-opacity="0.6"/>
    <polygon points="617,289 620,282 623,289" stroke-width="0.7" fill="none"/>
    <line x1="620" y1="340" x2="620" y2="418" stroke-width="0.4" stroke-opacity="0.5"/>
    <rect x="564" y="294" width="6" height="126" stroke-width="0.5"/>
    <rect x="670" y="294" width="6" height="126" stroke-width="0.5"/>

    <rect x="690" y="300" width="100" height="120" stroke-width="0.9"/>
    <path d="M690 340 Q690 290 740 290 Q790 290 790 340" stroke-width="1.0"/>
    <path d="M698 340 Q698 298 740 298 Q782 298 782 340" stroke-width="0.45" stroke-opacity="0.6"/>
    <polygon points="737,289 740,282 743,289" stroke-width="0.7" fill="none"/>
    <line x1="740" y1="340" x2="740" y2="418" stroke-width="0.4" stroke-opacity="0.5"/>
    <rect x="684" y="294" width="6" height="126" stroke-width="0.5"/>
    <rect x="790" y="294" width="6" height="126" stroke-width="0.5"/>

    <!-- ARA KAT KORNİŞ -->
    <line x1="75"  y1="222" x2="825" y2="222" stroke-width="1.4"/>
    <line x1="78"  y1="228" x2="822" y2="228" stroke-width="0.5"/>
    <g stroke-width="0.6" stroke-opacity="0.75">
      <rect x="90"  y="213" width="8" height="9"/><rect x="104" y="213" width="8" height="9"/>
      <rect x="118" y="213" width="8" height="9"/><rect x="132" y="213" width="8" height="9"/>
      <rect x="146" y="213" width="8" height="9"/><rect x="160" y="213" width="8" height="9"/>
      <rect x="174" y="213" width="8" height="9"/><rect x="188" y="213" width="8" height="9"/>
      <rect x="202" y="213" width="8" height="9"/><rect x="216" y="213" width="8" height="9"/>
      <rect x="230" y="213" width="8" height="9"/><rect x="244" y="213" width="8" height="9"/>
      <rect x="258" y="213" width="8" height="9"/><rect x="272" y="213" width="8" height="9"/>
      <rect x="286" y="213" width="8" height="9"/><rect x="300" y="213" width="8" height="9"/>
      <rect x="314" y="213" width="8" height="9"/><rect x="328" y="213" width="8" height="9"/>
      <rect x="342" y="213" width="8" height="9"/><rect x="356" y="213" width="8" height="9"/>
      <rect x="370" y="213" width="8" height="9"/><rect x="384" y="213" width="8" height="9"/>
      <rect x="398" y="213" width="8" height="9"/><rect x="412" y="213" width="8" height="9"/>
      <rect x="426" y="213" width="8" height="9"/><rect x="440" y="213" width="8" height="9"/>
      <rect x="454" y="213" width="8" height="9"/><rect x="468" y="213" width="8" height="9"/>
      <rect x="482" y="213" width="8" height="9"/><rect x="496" y="213" width="8" height="9"/>
      <rect x="510" y="213" width="8" height="9"/><rect x="524" y="213" width="8" height="9"/>
      <rect x="538" y="213" width="8" height="9"/><rect x="552" y="213" width="8" height="9"/>
      <rect x="566" y="213" width="8" height="9"/><rect x="580" y="213" width="8" height="9"/>
      <rect x="594" y="213" width="8" height="9"/><rect x="608" y="213" width="8" height="9"/>
      <rect x="622" y="213" width="8" height="9"/><rect x="636" y="213" width="8" height="9"/>
      <rect x="650" y="213" width="8" height="9"/><rect x="664" y="213" width="8" height="9"/>
      <rect x="678" y="213" width="8" height="9"/><rect x="692" y="213" width="8" height="9"/>
      <rect x="706" y="213" width="8" height="9"/><rect x="720" y="213" width="8" height="9"/>
      <rect x="734" y="213" width="8" height="9"/><rect x="748" y="213" width="8" height="9"/>
      <rect x="762" y="213" width="8" height="9"/><rect x="776" y="213" width="8" height="9"/>
      <rect x="790" y="213" width="8" height="9"/><rect x="804" y="213" width="8" height="9"/>
    </g>

    <!-- BALKON -->
    <rect x="340" y="228" width="220" height="10" stroke-width="0.9"/>
    <line x1="345" y1="190" x2="555" y2="190" stroke-width="0.8"/>
    <line x1="345" y1="194" x2="555" y2="194" stroke-width="0.35" stroke-opacity="0.5"/>
    <g stroke-width="0.55" stroke-opacity="0.8">
      <line x1="350" y1="190" x2="350" y2="238"/><line x1="360" y1="190" x2="360" y2="238"/>
      <line x1="370" y1="190" x2="370" y2="238"/><line x1="380" y1="190" x2="380" y2="238"/>
      <line x1="390" y1="190" x2="390" y2="238"/><line x1="400" y1="190" x2="400" y2="238"/>
      <line x1="410" y1="190" x2="410" y2="238"/><line x1="420" y1="190" x2="420" y2="238"/>
      <line x1="430" y1="190" x2="430" y2="238"/><line x1="440" y1="190" x2="440" y2="238"/>
      <line x1="450" y1="190" x2="450" y2="238"/><line x1="460" y1="190" x2="460" y2="238"/>
      <line x1="470" y1="190" x2="470" y2="238"/><line x1="480" y1="190" x2="480" y2="238"/>
      <line x1="490" y1="190" x2="490" y2="238"/><line x1="500" y1="190" x2="500" y2="238"/>
      <line x1="510" y1="190" x2="510" y2="238"/><line x1="520" y1="190" x2="520" y2="238"/>
      <line x1="530" y1="190" x2="530" y2="238"/><line x1="540" y1="190" x2="540" y2="238"/>
      <line x1="550" y1="190" x2="550" y2="238"/>
    </g>
    <path d="M340 238 Q340 230 355 228" stroke-width="0.8"/>
    <path d="M560 238 Q560 230 545 228" stroke-width="0.8"/>

    <!-- ÜST KAT -->
    <line x1="80"  y1="222" x2="80"  y2="100" stroke-width="1.2"/>
    <line x1="820" y1="222" x2="820" y2="100" stroke-width="1.2"/>
    <line x1="80"  y1="175" x2="820" y2="175" stroke-width="0.35" stroke-opacity="0.45"/>
    <line x1="80"  y1="148" x2="820" y2="148" stroke-width="0.35" stroke-opacity="0.45"/>
    <line x1="80"  y1="122" x2="820" y2="122" stroke-width="0.35" stroke-opacity="0.45"/>

    <!-- ÜST KAT PENCERELER -->
    <rect x="100" y="132" width="90" height="80" stroke-width="0.9"/>
    <rect x="106" y="137" width="78" height="75" stroke-width="0.35" stroke-opacity="0.5"/>
    <path d="M100 168 Q100 122 145 122 Q190 122 190 168" stroke-width="0.9"/>
    <path d="M108 168 Q108 130 145 130 Q182 130 182 168" stroke-width="0.4" stroke-opacity="0.55"/>
    <polygon points="142,121 145,114 148,121" stroke-width="0.7" fill="none"/>

    <rect x="220" y="132" width="90" height="80" stroke-width="0.9"/>
    <rect x="226" y="137" width="78" height="75" stroke-width="0.35" stroke-opacity="0.5"/>
    <path d="M220 168 Q220 122 265 122 Q310 122 310 168" stroke-width="0.9"/>
    <path d="M228 168 Q228 130 265 130 Q302 130 302 168" stroke-width="0.4" stroke-opacity="0.55"/>
    <polygon points="262,121 265,114 268,121" stroke-width="0.7" fill="none"/>

    <!-- MERKEZ BÜYÜK PENCERE -->
    <rect x="395" y="125" width="110" height="87" stroke-width="1.0"/>
    <rect x="402" y="131" width="96"  height="81" stroke-width="0.4" stroke-opacity="0.5"/>
    <path d="M395 168 Q395 112 450 112 Q505 112 505 168" stroke-width="1.1"/>
    <path d="M403 168 Q403 120 450 120 Q497 120 497 168" stroke-width="0.45" stroke-opacity="0.55"/>
    <polygon points="447,111 450,103 453,111" stroke-width="0.8" fill="none"/>
    <line x1="450" y1="103" x2="450" y2="97" stroke-width="0.7"/>
    <rect x="388" y="118" width="8" height="94" stroke-width="0.6"/>
    <rect x="504" y="118" width="8" height="94" stroke-width="0.6"/>

    <rect x="590" y="132" width="90" height="80" stroke-width="0.9"/>
    <rect x="596" y="137" width="78" height="75" stroke-width="0.35" stroke-opacity="0.5"/>
    <path d="M590 168 Q590 122 635 122 Q680 122 680 168" stroke-width="0.9"/>
    <path d="M598 168 Q598 130 635 130 Q672 130 672 168" stroke-width="0.4" stroke-opacity="0.55"/>
    <polygon points="632,121 635,114 638,121" stroke-width="0.7" fill="none"/>

    <rect x="710" y="132" width="90" height="80" stroke-width="0.9"/>
    <rect x="716" y="137" width="78" height="75" stroke-width="0.35" stroke-opacity="0.5"/>
    <path d="M710 168 Q710 122 755 122 Q800 122 800 168" stroke-width="0.9"/>
    <path d="M718 168 Q718 130 755 130 Q792 130 792 168" stroke-width="0.4" stroke-opacity="0.55"/>
    <polygon points="752,121 755,114 758,121" stroke-width="0.7" fill="none"/>

    <!-- ÜST KORNİŞ -->
    <line x1="60"  y1="102" x2="840" y2="102" stroke-width="1.5"/>
    <line x1="65"  y1="107" x2="835" y2="107" stroke-width="0.6"/>
    <line x1="70"  y1="112" x2="830" y2="112" stroke-width="0.4" stroke-opacity="0.5"/>
    <g stroke-width="0.55" stroke-opacity="0.7">
      <rect x="90"  y="93" width="7" height="9"/><rect x="103" y="93" width="7" height="9"/>
      <rect x="116" y="93" width="7" height="9"/><rect x="129" y="93" width="7" height="9"/>
      <rect x="142" y="93" width="7" height="9"/><rect x="155" y="93" width="7" height="9"/>
      <rect x="168" y="93" width="7" height="9"/><rect x="181" y="93" width="7" height="9"/>
      <rect x="194" y="93" width="7" height="9"/><rect x="207" y="93" width="7" height="9"/>
      <rect x="220" y="93" width="7" height="9"/><rect x="233" y="93" width="7" height="9"/>
      <rect x="246" y="93" width="7" height="9"/><rect x="259" y="93" width="7" height="9"/>
      <rect x="272" y="93" width="7" height="9"/><rect x="285" y="93" width="7" height="9"/>
      <rect x="298" y="93" width="7" height="9"/><rect x="311" y="93" width="7" height="9"/>
      <rect x="324" y="93" width="7" height="9"/><rect x="337" y="93" width="7" height="9"/>
      <rect x="350" y="93" width="7" height="9"/><rect x="363" y="93" width="7" height="9"/>
      <rect x="376" y="93" width="7" height="9"/><rect x="389" y="93" width="7" height="9"/>
      <rect x="402" y="93" width="7" height="9"/><rect x="415" y="93" width="7" height="9"/>
      <rect x="428" y="93" width="7" height="9"/><rect x="441" y="93" width="7" height="9"/>
      <rect x="454" y="93" width="7" height="9"/><rect x="467" y="93" width="7" height="9"/>
      <rect x="480" y="93" width="7" height="9"/><rect x="493" y="93" width="7" height="9"/>
      <rect x="506" y="93" width="7" height="9"/><rect x="519" y="93" width="7" height="9"/>
      <rect x="532" y="93" width="7" height="9"/><rect x="545" y="93" width="7" height="9"/>
      <rect x="558" y="93" width="7" height="9"/><rect x="571" y="93" width="7" height="9"/>
      <rect x="584" y="93" width="7" height="9"/><rect x="597" y="93" width="7" height="9"/>
      <rect x="610" y="93" width="7" height="9"/><rect x="623" y="93" width="7" height="9"/>
      <rect x="636" y="93" width="7" height="9"/><rect x="649" y="93" width="7" height="9"/>
      <rect x="662" y="93" width="7" height="9"/><rect x="675" y="93" width="7" height="9"/>
      <rect x="688" y="93" width="7" height="9"/><rect x="701" y="93" width="7" height="9"/>
      <rect x="714" y="93" width="7" height="9"/><rect x="727" y="93" width="7" height="9"/>
      <rect x="740" y="93" width="7" height="9"/><rect x="753" y="93" width="7" height="9"/>
      <rect x="766" y="93" width="7" height="9"/><rect x="779" y="93" width="7" height="9"/>
      <rect x="792" y="93" width="7" height="9"/><rect x="805" y="93" width="7" height="9"/>
    </g>

    <!-- PEDİMENT (üçgen alın) -->
    <polyline points="360,102 450,50 540,102" stroke-width="1.2"/>
    <polyline points="372,102 450,57 528,102" stroke-width="0.5" stroke-opacity="0.6"/>
    <polygon points="446,50 450,41 454,50" stroke-width="0.9" fill="none"/>
    <line x1="450" y1="41" x2="450" y2="33" stroke-width="0.9"/>
    <circle cx="450" cy="30" r="4" stroke-width="0.8"/>
    <circle cx="450" cy="30" r="1.5" stroke-width="0.5"/>
    <rect x="410" y="65" width="80" height="26" stroke-width="0.5" stroke-opacity="0.55"/>
    <polygon points="358,102 362,94 366,102" stroke-width="0.6" fill="none"/>
    <polygon points="534,102 538,94 542,102" stroke-width="0.6" fill="none"/>

    <!-- KÖŞELİK TAŞLAR -->
    <g stroke-width="0.55" stroke-opacity="0.65">
      <rect x="80"  y="210" width="18" height="12"/><rect x="80"  y="230" width="14" height="10"/>
      <rect x="80"  y="248" width="18" height="12"/><rect x="80"  y="268" width="14" height="10"/>
      <rect x="80"  y="286" width="18" height="12"/><rect x="80"  y="306" width="14" height="10"/>
      <rect x="80"  y="324" width="18" height="12"/><rect x="80"  y="344" width="14" height="10"/>
      <rect x="80"  y="362" width="18" height="12"/><rect x="80"  y="382" width="14" height="10"/>
      <rect x="80"  y="400" width="18" height="12"/>
      <rect x="802" y="210" width="18" height="12"/><rect x="806" y="230" width="14" height="10"/>
      <rect x="802" y="248" width="18" height="12"/><rect x="806" y="268" width="14" height="10"/>
      <rect x="802" y="286" width="18" height="12"/><rect x="806" y="306" width="14" height="10"/>
      <rect x="802" y="324" width="18" height="12"/><rect x="806" y="344" width="14" height="10"/>
      <rect x="802" y="362" width="18" height="12"/><rect x="806" y="382" width="14" height="10"/>
      <rect x="802" y="400" width="18" height="12"/>
    </g>

  </g><!-- /stroke group -->

  <!-- ════════════════════════════════════════════════
       ALTI YAZI ALANI
  ════════════════════════════════════════════════ -->

  <!-- İnce ayırıcı çizgiler -->
  <line x1="200" y1="475" x2="700" y2="475" stroke="#b8955a" stroke-width="0.6" stroke-opacity="0.5"/>
  <line x1="200" y1="478" x2="700" y2="478" stroke="#b8955a" stroke-width="0.25" stroke-opacity="0.3"/>

  <!-- KONAK — ana başlık -->
  <text
    x="450" y="526"
    text-anchor="middle"
    font-family="'Cormorant Garamond', 'Garamond', 'Georgia', serif"
    font-size="62"
    font-weight="300"
    letter-spacing="22"
    fill="#e8ddc8">KONAK</text>

  <!-- EST. 1882 — kuruluş yılı, altın rengi -->
  <text
    x="450" y="556"
    text-anchor="middle"
    font-family="'Cormorant Garamond', 'Garamond', 'Georgia', serif"
    font-size="13"
    font-weight="300"
    letter-spacing="7"
    fill="#b8955a">EST.   1882</text>

  <!-- Alt çizgi -->
  <line x1="200" y1="566" x2="700" y2="566" stroke="#b8955a" stroke-width="0.25" stroke-opacity="0.3"/>
  <line x1="200" y1="569" x2="700" y2="569" stroke="#b8955a" stroke-width="0.6" stroke-opacity="0.5"/>

  <!-- Konum yazısı -->
  <text
    x="450" y="595"
    text-anchor="middle"
    font-family="'Cormorant Garamond', 'Garamond', 'Georgia', serif"
    font-size="11"
    font-weight="300"
    letter-spacing="6"
    fill="#b8955a" opacity="0.7">CUNDA  ·  AYVALIK</text>

</svg>
